<?xml version="1.0" encoding="UTF-8"?>
<!DOCTYPE svg PUBLIC "-//W3C//DTD SVG 1.1//EN" "http://www.w3.org/Graphics/SVG/1.1/DTD/svg11.dtd">
<svg version="1.1" xmlns="http://www.w3.org/2000/svg" xmlns:xlink="http://www.w3.org/1999/xlink" x="0" y="0" width="451" height="364" viewBox="0, 0, 451, 364">
  <defs>
    <linearGradient id="Gradient_1" gradientUnits="userSpaceOnUse" x1="144.82" y1="42.487" x2="164.82" y2="107.154">
      <stop offset="0" stop-color="#00341C"/>
      <stop offset="1" stop-color="#006436"/>
    </linearGradient>
  </defs>
  <g id="Layer_1">
    <path d="M10.859,247.747 L365.525,247.747 L365.525,259.08 L10.859,259.08 z" fill="#D7D8D6"/>
    <path d="M6.08,1.658 L379.822,1.658 L379.822,246.268 L6.08,246.268 z" fill="#F3B674"/>
    <path d="M6.08,1.658 L379.822,1.658 L379.822,246.268 L6.08,246.268 z" fill-opacity="0" stroke="#1A1919" stroke-width="3.193" stroke-linecap="round" stroke-linejoin="round"/>
    <path d="M16.192,8.414 L369.71,8.414 L369.71,231.514 L16.192,231.514 z" fill="#006436"/>
    <path d="M16.192,8.414 L369.71,8.414 L369.71,231.514 L16.192,231.514 z" fill-opacity="0" stroke="#1A1919" stroke-width="2" stroke-linecap="round" stroke-linejoin="round"/>
    <path d="M384.806,250.015 L3.299,250.015 L1.597,239.344 L387.071,239.344 L384.806,250.015" fill="#83653F"/>
    <path d="M384.806,250.015 L3.299,250.015 L1.597,239.344 L387.071,239.344 L384.806,250.015 z" fill-opacity="0" stroke="#1A1919" stroke-width="3.193" stroke-linecap="round" stroke-linejoin="round"/>
    <path d="M63.526,215.08 L104.859,215.08 L104.859,235.747 L63.526,235.747 z" fill="#DDBFA0"/>
    <path d="M63.526,215.08 L104.859,215.08 L104.859,235.747 L63.526,235.747 z" fill-opacity="0" stroke="#1A1919" stroke-width="2.5" stroke-linecap="round" stroke-linejoin="round"/>
    <path d="M81.189,214.13 L88.132,214.13 L88.132,232.797 L81.189,232.797 z" fill="#EB8B2D"/>
    <path d="M81.189,232.797 L88.132,232.797 L88.132,214.13 L81.189,214.13 z" fill-opacity="0" stroke="#1A1919" stroke-width="2.5" stroke-linecap="round" stroke-linejoin="round"/>
    <path d="M149.341,39.562 L182.675,144.895 L171.341,148.229 L147.341,42.895 L149.341,39.562 z" fill="url(#Gradient_1)"/>
    <path d="M310.192,134.747 C310.192,134.747 294.192,141.08 287.192,150.414 C280.192,159.747 267.859,178.414 267.859,178.414 L249.192,159.747 L246.859,160.747 L243.192,156.414 C243.192,156.414 239.193,157.08 232.526,171.414 C225.859,185.747 224.526,190.08 224.526,190.08 L229.192,195.08 L227.859,201.08 C227.859,201.08 248.192,225.747 258.859,231.747 C269.526,237.747 273.526,232.08 273.526,232.08 C273.526,232.08 270.192,256.747 271.859,271.414 C273.526,286.08 274.526,297.414 274.526,297.414 C274.526,297.414 359.525,302.413 383.192,301.08 C406.859,299.747 425.526,297.747 425.526,297.747 L422.859,253.747 C422.859,253.747 442.192,231.08 446.192,222.414 C450.192,213.747 449.859,218.08 447.859,212.747 C445.859,207.414 436.858,167.414 417.192,147.747 C397.526,128.08 384.192,126.414 384.192,126.414 C384.192,126.414 367.86,140.747 333.526,140.747 C327.526,142.747 318.526,141.747 313.526,138.747 C308.526,135.747 310.192,134.747 310.192,134.747" fill="#FFFFFE"/>
    <path d="M450.101,349.318 C450.101,357.428 403.29,364 345.549,364 C287.805,364 240.995,357.428 240.995,349.318 C240.995,341.211 287.805,334.638 345.549,334.638 C403.29,334.638 450.101,341.211 450.101,349.318" fill="#D7D8D6"/>
    <path d="M280.582,344.672 C280.582,344.672 280.136,347.037 281.641,350.629 C283.146,354.221 289.395,357.916 304.497,354.68 C319.6,351.445 330.325,349.303 335.938,345.863 C341.55,342.426 344.646,345.656 346.287,342.924 C347.928,340.189 347.651,334.644 347.651,334.644 L280.582,344.672" fill="#251D13"/>
    <path d="M280.582,344.672 C280.582,344.672 280.136,347.037 281.641,350.629 C283.146,354.221 289.395,357.916 304.497,354.68 C319.6,351.445 330.325,349.303 335.938,345.863 C341.55,342.426 344.646,345.656 346.287,342.924 C347.928,340.189 347.651,334.644 347.651,334.644 L280.582,344.672 z" fill-opacity="0" stroke="#1A1919" stroke-width="2.966" stroke-linecap="round" stroke-linejoin="round"/>
    <path d="M306.742,323.876 C306.742,323.876 307.474,326.659 302.687,328.534 C297.899,330.409 281.124,330.456 280.289,339.92 C279.766,345.84 280.787,347.828 288.404,348.797 C295.9,349.748 302.252,348.699 309.403,347.271 C327.129,343.728 331.673,341.814 334.904,338.722 C338.136,335.626 345.202,338.151 346.027,336.589 C346.852,335.022 347.4,327.913 347.4,327.913 L344.776,321.134 L306.742,323.876" fill="#492E25"/>
    <path d="M306.742,323.876 C306.742,323.876 307.474,326.659 302.687,328.534 C297.899,330.409 281.124,330.456 280.289,339.92 C279.766,345.84 280.787,347.828 288.404,348.797 C295.9,349.748 302.252,348.699 309.403,347.271 C327.129,343.728 331.673,341.814 334.904,338.722 C338.136,335.626 345.202,338.151 346.027,336.589 C346.852,335.022 347.4,327.913 347.4,327.913 L344.776,321.134 L306.742,323.876 z" fill-opacity="0" stroke="#1A1919" stroke-width="2.966" stroke-linecap="round" stroke-linejoin="round"/>
    <path d="M348.334,339.603 C348.334,339.603 348.191,346.326 350.125,348.346 C352.06,350.365 357.597,350.484 359.959,350.93 C362.323,351.377 363.759,358.133 386.693,358.627 C409.626,359.123 414.801,357.65 416.028,355.699 C417.258,353.748 417.051,345.039 417.051,345.039 L357.085,337.419 L348.334,339.603" fill="#251D13"/>
    <path d="M348.334,339.603 C348.334,339.603 348.191,346.326 350.125,348.346 C352.06,350.365 357.597,350.484 359.959,350.93 C362.323,351.377 363.759,358.133 386.693,358.627 C409.626,359.123 414.801,357.65 416.028,355.699 C417.258,353.748 417.051,345.039 417.051,345.039 L357.085,337.419 L348.334,339.603 z" fill-opacity="0" stroke="#1A1919" stroke-width="2.966" stroke-linecap="round" stroke-linejoin="round"/>
    <path d="M346.58,329.282 C346.58,329.282 347.167,338.788 348.31,340.791 C349.453,342.793 360.156,341.836 361.687,344.242 C363.216,346.65 364.316,350.629 372.998,351.607 C381.68,352.586 416.021,356.096 416.577,348.59 C417.134,341.086 418.397,337.552 405.409,334.505 C392.422,331.454 387.525,329.173 387.525,329.173 L346.58,329.282" fill="#492E25"/>
    <path d="M346.58,329.282 C346.58,329.282 347.167,338.788 348.31,340.791 C349.453,342.793 360.156,341.836 361.687,344.242 C363.216,346.65 364.316,350.629 372.998,351.607 C381.68,352.586 416.021,356.096 416.577,348.59 C417.134,341.086 418.397,337.552 405.409,334.505 C392.422,331.454 387.525,329.173 387.525,329.173 L346.58,329.282 z" fill-opacity="0" stroke="#1A1919" stroke-width="2.966" stroke-linecap="round" stroke-linejoin="round"/>
    <path d="M150.466,46.456 C150.466,46.456 144.315,41.095 146.747,38.378 C149.179,35.662 153.251,44.408 153.251,44.408 L150.466,46.456" fill="#D8232A"/>
    <path d="M150.466,46.456 C150.466,46.456 144.315,41.095 146.747,38.378 C149.179,35.662 153.251,44.408 153.251,44.408 L150.466,46.456 z" fill-opacity="0" stroke="#1A1919" stroke-width="2.373" stroke-linecap="round" stroke-linejoin="round"/>
    <path d="M170.64,69.242 C170.64,69.242 154.68,46.546 153.251,44.408 C152.608,43.446 150.18,45.772 150.466,46.456 C151.267,48.371 168.459,72.569 168.459,72.569 L170.64,69.242" fill="#949594"/>
    <path d="M170.64,69.242 C170.64,69.242 154.68,46.546 153.251,44.408 C152.608,43.446 150.18,45.772 150.466,46.456 C151.267,48.371 168.459,72.569 168.459,72.569 L170.64,69.242 z" fill-opacity="0" stroke="#1A1919" stroke-width="2.373" stroke-linecap="round" stroke-linejoin="round"/>
    <path d="M192.487,99.698 C192.487,99.698 171.723,70.167 169.861,67.383 C169.025,66.131 165.864,69.159 166.237,70.048 C167.281,72.54 189.65,104.026 189.65,104.026 L192.487,99.698" fill="#949594"/>
    <path d="M192.487,99.698 C192.487,99.698 171.723,70.167 169.861,67.383 C169.025,66.131 165.864,69.159 166.237,70.048 C167.281,72.54 189.65,104.026 189.65,104.026 L192.487,99.698 z" fill-opacity="0" stroke="#1A1919" stroke-width="2.373" stroke-linecap="round" stroke-linejoin="round"/>
    <path d="M228.348,180.17 C228.348,180.17 217.226,182.306 215.092,171.183 C212.957,160.061 216.894,135.492 220.293,131.737 C225.561,125.916 226.325,127.12 228.142,134.675 C229.732,141.3 241.544,141.784 242.439,150.411 C243.094,156.729 243.093,156.754 238.203,163.374 C233.313,169.993 228.348,180.17 228.348,180.17" fill="#F9D8B5"/>
    <path d="M228.348,180.17 C228.348,180.17 217.226,182.306 215.092,171.183 C212.957,160.061 216.894,135.492 220.293,131.737 C225.561,125.916 226.325,127.12 228.142,134.675 C229.732,141.3 241.544,141.784 242.439,150.411 C243.094,156.729 243.093,156.754 238.203,163.374 C233.313,169.993 228.348,180.17 228.348,180.17 z" fill-opacity="0" stroke="#1A1919" stroke-width="2.966" stroke-linecap="round" stroke-linejoin="round"/>
    <path d="M372.229,130.263 C372.229,130.263 337.25,156.408 321.352,178.218 C305.454,200.029 300.05,212.176 300.05,212.176 C300.05,212.176 292.457,197.377 300.205,168.269 C307.951,139.164 315.524,136.557 315.524,136.557" fill="#FFFFFE"/>
    <path d="M372.229,130.263 C372.229,130.263 337.25,156.408 321.352,178.218 C305.454,200.029 300.05,212.176 300.05,212.176 C300.05,212.176 292.457,197.377 300.205,168.269 C307.951,139.164 315.524,136.557 315.524,136.557 M311.234,133.696 C311.234,133.696 293.614,143.601 287.318,160.476 C295.192,162.228 295.554,163.818 295.554,163.818 C295.554,163.818 286.417,165.599 285.138,169.923 C283.856,174.247 281.676,183.693 289.277,198.1 C296.878,212.502 300.05,212.176 300.05,212.176 C300.05,212.176 334.643,185.627 348.256,178.008 C361.141,170.796 349.284,166.953 345.769,164.9 C342.252,162.846 363.956,165.291 363.956,165.291 L378.252,126.04 M329.32,138.832 L340.378,158.058 L329.32,138.832 z M305.668,153.355 L329.32,138.832" fill-opacity="0" stroke="#1A1919" stroke-width="2.966" stroke-linecap="round" stroke-linejoin="round"/>
    <path d="M314.469,148.798 L315.863,157.531 L322.552,159.256 L336.569,151.251 L329.295,140.019 L314.469,148.798" fill="#444F7E"/>
    <path d="M314.469,148.798 L315.863,157.531 L322.552,159.256 L336.569,151.251 L329.295,140.019 L314.469,148.798 z" fill-opacity="0" stroke="#1A1919" stroke-width="2.966" stroke-linecap="round" stroke-linejoin="round"/>
    <path d="M315.638,186.402 L322.552,159.256 L315.863,157.531 C315.863,157.531 298.479,174.957 297.5,183.639 C296.522,192.322 300.05,212.176 300.05,212.176 L315.638,186.402" fill="#444F7E"/>
    <path d="M315.638,186.402 L322.552,159.256 L315.863,157.531 C315.863,157.531 298.479,174.957 297.5,183.639 C296.522,192.322 300.05,212.176 300.05,212.176 L315.638,186.402 z" fill-opacity="0" stroke="#1A1919" stroke-width="2.966" stroke-linecap="round" stroke-linejoin="round"/>
    <path d="M365.21,235.732 C365.21,235.732 378.447,245.51 392.143,252.529 C405.838,259.551 415.704,260.555 415.704,260.555 L411.521,271.144 C411.521,271.144 404.773,272.186 387.193,261.918 C369.614,251.65 361.034,245.928 361.034,245.928 L365.21,235.732" fill="#FFFFFE"/>
    <path d="M365.21,235.732 C365.21,235.732 378.447,245.51 392.143,252.529 C405.838,259.551 415.704,260.555 415.704,260.555 L411.521,271.144 C411.521,271.144 404.773,272.186 387.193,261.918 C369.614,251.65 361.034,245.928 361.034,245.928 L365.21,235.732 z M380.659,124.51 C380.659,124.51 405.428,131.784 419.035,149.523 C440.521,177.529 447.661,209.422 448.703,216.17 C449.744,222.916 421.342,255.928 421.342,255.928 C421.342,255.928 393.724,252.566 372.377,233.514 C384.975,217.961 388.907,209.936 388.907,209.936 C388.907,209.936 382.53,202.875 391.238,202.668 C399.947,202.459 396,201.978 396,201.978 C396,201.978 371.074,202.232 380.788,173.564 M279.261,185.619 C279.261,185.619 268.061,228.102 274.289,297.066 C319.616,304.768 425.967,298.357 425.967,298.357 L423.344,254.785 M375.859,237.148 L372.611,241.033 M410.894,254.32 L406.46,258.18 M355.294,255.297 C355.294,255.297 348.954,274.148 364.935,285.172 M303.939,233.621 C303.878,236.461 301.527,238.711 298.688,238.65 C295.85,238.59 293.598,236.238 293.659,233.4 C293.721,230.561 296.071,228.309 298.91,228.371 C301.748,228.432 304.001,230.783 303.939,233.621 z M303.317,262.486 C303.257,265.324 300.905,267.576 298.066,267.514 C295.229,267.453 292.977,265.103 293.037,262.264 C293.099,259.424 295.45,257.174 298.289,257.234 C301.126,257.295 303.379,259.646 303.317,262.486 z M311.234,133.696 C311.234,133.696 294.29,139.859 278.388,161.867 C270.513,172.765 267.14,179.029 267.14,179.029 L248.99,158.463 C248.99,158.463 230.636,184.178 227.51,200.723 C242.935,219.252 259.554,237.412 272.729,231.762 M267.14,179.029 C267.14,179.029 271.558,175.959 271.8,183.086" fill-opacity="0" stroke="#1A1919" stroke-width="2.966" stroke-linecap="round" stroke-linejoin="round"/>
    <path d="M246.921,160.347 L243.094,156.729 C243.094,156.729 232.558,168.396 227.128,181.728 C223.762,189.99 224.946,191.174 224.946,191.174 L228.428,194.809 C228.428,194.809 233.822,183.059 238.756,174.461 C243.688,165.866 246.921,160.347 246.921,160.347" fill="#FFFFFE"/>
    <path d="M246.921,160.347 L243.094,156.729 C243.094,156.729 232.558,168.396 227.128,181.728 C223.762,189.99 224.946,191.174 224.946,191.174 L228.428,194.809 C228.428,194.809 233.822,183.059 238.756,174.461 C243.688,165.866 246.921,160.347 246.921,160.347 z" fill-opacity="0" stroke="#1A1919" stroke-width="2.966" stroke-linecap="round" stroke-linejoin="round"/>
    <path d="M225.907,146.495 C225.907,146.495 195.97,103.918 193.288,99.905 C192.083,98.101 187.524,102.464 188.061,103.748 C189.567,107.341 221.817,152.736 221.817,152.736 L225.907,146.495" fill="#949594"/>
    <path d="M225.907,146.495 C225.907,146.495 195.97,103.918 193.288,99.905 C192.083,98.101 187.524,102.464 188.061,103.748 C189.567,107.341 221.817,152.736 221.817,152.736 L225.907,146.495 z" fill-opacity="0" stroke="#1A1919" stroke-width="2.373" stroke-linecap="round" stroke-linejoin="round"/>
    <path d="M213.229,165.802 C213.229,165.802 212.285,172.902 218.646,171.457 C225.006,170.013 229.88,164.183 225.605,160.53 C221.333,156.879 217.319,159.562 217.319,159.562 L213.229,165.802" fill="#F9D8B5"/>
    <path d="M213.229,165.802 C213.229,165.802 212.285,172.902 218.646,171.457 C225.006,170.013 229.88,164.183 225.605,160.53 C221.333,156.879 217.319,159.562 217.319,159.562 L213.229,165.802 z" fill-opacity="0" stroke="#1A1919" stroke-width="2.966" stroke-linecap="round" stroke-linejoin="round"/>
    <path d="M206.721,155.773 C206.721,155.773 207.669,166.87 220.036,161.994 C232.404,157.118 225.785,152.228 219.828,153.286 C213.871,154.345 206.721,155.773 206.721,155.773" fill="#F9D8B5"/>
    <path d="M206.721,155.773 C206.721,155.773 207.669,166.87 220.036,161.994 C232.404,157.118 225.785,152.228 219.828,153.286 C213.871,154.345 206.721,155.773 206.721,155.773 z" fill-opacity="0" stroke="#1A1919" stroke-width="2.966" stroke-linecap="round" stroke-linejoin="round"/>
    <path d="M198.859,135.034 C198.859,135.034 207.584,134.035 210.283,137.257 C212.982,140.481 214.118,142.878 205.791,143.886 C197.462,144.893 194.711,144.041 194.4,140.081 C194.09,136.118 198.859,135.034 198.859,135.034" fill="#F9D8B5"/>
    <path d="M198.859,135.034 C198.859,135.034 207.584,134.035 210.283,137.257 C212.982,140.481 214.118,142.878 205.791,143.886 C197.462,144.893 194.711,144.041 194.4,140.081 C194.09,136.118 198.859,135.034 198.859,135.034 z" fill-opacity="0" stroke="#1A1919" stroke-width="2.966" stroke-linecap="round" stroke-linejoin="round"/>
    <path d="M210.123,144.77 C210.123,144.77 222.809,143.46 221.091,149.753 C220.431,152.172 215.494,156.037 207.537,154.604 C200.051,153.256 199.388,147.307 203.788,145.029 C208.188,142.75 210.123,144.77 210.123,144.77" fill="#F9D8B5"/>
    <path d="M210.123,144.77 C210.123,144.77 222.809,143.46 221.091,149.753 C220.431,152.172 215.494,156.037 207.537,154.604 C200.051,153.256 199.388,147.307 203.788,145.029 C208.188,142.75 210.123,144.77 210.123,144.77 z M241.47,158.697 C241.47,158.697 244.803,150.857 240.16,146.01 C235.518,141.164 233.521,141.912 229.285,136.677 C225.045,131.444 229.102,126.785 224.314,128.659 C219.528,130.534 219.038,134.874 221.273,141.251 L225.556,144.509 C225.556,144.509 221.053,151.533 229.605,158.442" fill-opacity="0" stroke="#1A1919" stroke-width="2.966" stroke-linecap="round" stroke-linejoin="round"/>
    <path d="M340.072,300.857 C340.072,300.857 342.591,321.679 343.675,326.45 C344.758,331.22 344.758,331.22 344.758,331.22 C344.758,331.22 377.959,332.528 387.486,330.952 C397.015,329.376 397.015,329.376 397.015,329.376 L399.424,300.156 C399.424,300.156 390.321,300.357 370.931,300.73 C357.039,300.998 350.361,300.684 350.361,300.684 L340.072,300.857" fill="#777776"/>
    <path d="M340.072,300.857 C340.072,300.857 342.591,321.679 343.675,326.45 C344.758,331.22 344.758,331.22 344.758,331.22 C344.758,331.22 377.959,332.528 387.486,330.952 C397.015,329.376 397.015,329.376 397.015,329.376 L399.424,300.156 C399.424,300.156 390.321,300.357 370.931,300.73 C357.039,300.998 350.361,300.684 350.361,300.684 L340.072,300.857 z" fill-opacity="0" stroke="#1A1919" stroke-width="2.966" stroke-linecap="round" stroke-linejoin="round"/>
    <path d="M343.97,321.905 C343.97,321.905 356.193,323.751 374.811,322.571 C393.428,321.392 397.391,321.079 397.391,321.079" fill="#777776"/>
    <path d="M343.97,321.905 C343.97,321.905 356.193,323.751 374.811,322.571 C393.428,321.392 397.391,321.079 397.391,321.079" fill-opacity="0" stroke="#1A1919" stroke-width="2.966" stroke-linecap="round" stroke-linejoin="round"/>
    <path d="M293.027,299.447 C293.027,299.447 298.388,326.067 299.549,327.278 C300.709,328.491 333.502,330.384 343.834,328.231 C341.423,311.567 340.072,300.857 340.072,300.857 L293.027,299.447" fill="#777776"/>
    <path d="M293.027,299.447 C293.027,299.447 298.388,326.067 299.549,327.278 C300.709,328.491 333.502,330.384 343.834,328.231 C341.423,311.567 340.072,300.857 340.072,300.857 L293.027,299.447 z" fill-opacity="0" stroke="#1A1919" stroke-width="2.966" stroke-linecap="round" stroke-linejoin="round"/>
    <path d="M298.55,318.554 C298.55,318.554 305.255,319.491 324.621,320.304 C341.259,321.003 342.843,319.114 342.843,319.114" fill="#777776"/>
    <path d="M298.55,318.554 C298.55,318.554 305.255,319.491 324.621,320.304 C341.259,321.003 342.843,319.114 342.843,319.114" fill-opacity="0" stroke="#1A1919" stroke-width="2.966" stroke-linecap="round" stroke-linejoin="round"/>
    <path d="M285.34,73.307 C285.34,73.307 273.956,78.401 274.47,68.326 C274.983,58.25 279.109,59.525 279.109,59.525 C279.109,59.525 265.5,57.747 271.062,47.484 C276.623,37.219 283.567,45.38 283.567,45.38 C283.567,45.38 276.164,30.98 288.953,29.475 C301.744,27.97 299.393,40.677 299.393,40.677 L285.34,73.307" fill="#E3E4E2"/>
    <path d="M285.34,73.307 C285.34,73.307 273.956,78.401 274.47,68.326 C274.983,58.25 279.109,59.525 279.109,59.525 C279.109,59.525 265.5,57.747 271.062,47.484 C276.623,37.219 283.567,45.38 283.567,45.38 C283.567,45.38 276.164,30.98 288.953,29.475 C301.744,27.97 299.393,40.677 299.393,40.677 L285.34,73.307 z" fill-opacity="0" stroke="#1A1919" stroke-width="2.966" stroke-linecap="round" stroke-linejoin="round"/>
    <path d="M405.305,82.269 C404.564,116.581 374.853,141.692 339.067,140.921 C303.281,140.151 281.26,119.707 281.52,85.389 C281.839,42.969 307.396,18.003 343.18,18.775 C378.967,19.545 406.043,47.957 405.305,82.269" fill="#F9D8B5"/>
    <path d="M405.305,82.269 C404.564,116.581 374.853,141.692 339.067,140.921 C303.281,140.151 281.26,119.707 281.52,85.389 C281.839,42.969 307.396,18.003 343.18,18.775 C378.967,19.545 406.043,47.957 405.305,82.269 z" fill-opacity="0" stroke="#1A1919" stroke-width="2.966" stroke-linecap="round" stroke-linejoin="round"/>
    <path d="M315.054,66.183 C315.011,68.17 313.365,69.747 311.377,69.706 C309.389,69.663 307.813,68.016 307.854,66.029 C307.897,64.04 309.543,62.463 311.532,62.506 C313.52,62.548 315.097,64.195 315.054,66.183" fill="#1A1919"/>
    <path d="M315.054,66.183 C315.011,68.17 313.365,69.747 311.377,69.706 C309.389,69.663 307.813,68.016 307.854,66.029 C307.897,64.04 309.543,62.463 311.532,62.506 C313.52,62.548 315.097,64.195 315.054,66.183 z" fill-opacity="0" stroke="#1A1919" stroke-width="0.593"/>
    <path d="M355.656,68.245 C355.613,70.232 353.966,71.809 351.979,71.766 C349.99,71.724 348.415,70.077 348.457,68.089 C348.5,66.101 350.146,64.524 352.134,64.567 C354.121,64.61 355.698,66.256 355.656,68.245" fill="#1A1919"/>
    <path d="M355.656,68.245 C355.613,70.232 353.966,71.809 351.979,71.766 C349.99,71.724 348.415,70.077 348.457,68.089 C348.5,66.101 350.146,64.524 352.134,64.567 C354.121,64.61 355.698,66.256 355.656,68.245 z" fill-opacity="0" stroke="#1A1919" stroke-width="0.593"/>
    <path d="M316.679,50.839 C306.44,44.092 299.415,53.435 299.415,53.435 C299.415,53.435 299.538,39.79 309.198,39.998 C316.612,40.158 316.679,50.839 316.679,50.839" fill="#FFFFFE"/>
    <path d="M316.679,50.839 C306.44,44.092 299.415,53.435 299.415,53.435 C299.415,53.435 299.538,39.79 309.198,39.998 C316.612,40.158 316.679,50.839 316.679,50.839 z" fill-opacity="0" stroke="#1A1919" stroke-width="2.966" stroke-linecap="round" stroke-linejoin="round"/>
    <path d="M361.078,55.653 C353.609,44.218 340.402,51.351 340.402,51.351 C340.402,51.351 340.072,39.179 351.341,39.422 C362.608,39.664 361.078,55.653 361.078,55.653" fill="#FFFFFE"/>
    <path d="M361.078,55.653 C353.609,44.218 340.402,51.351 340.402,51.351 C340.402,51.351 340.072,39.179 351.341,39.422 C362.608,39.664 361.078,55.653 361.078,55.653 z" fill-opacity="0" stroke="#1A1919" stroke-width="2.966" stroke-linecap="round" stroke-linejoin="round"/>
    <path d="M349.206,83.434 C349.095,88.593 344.822,92.685 339.663,92.575 C334.504,92.463 330.412,88.191 330.523,83.032 C330.634,77.872 334.906,73.781 340.065,73.892 C345.225,74.003 349.316,78.276 349.206,83.434" fill="#FFFFFE"/>
    <path d="M349.206,83.434 C349.095,88.593 344.822,92.685 339.663,92.575 C334.504,92.463 330.412,88.191 330.523,83.032 C330.634,77.872 334.906,73.781 340.065,73.892 C345.225,74.003 349.316,78.276 349.206,83.434 z" fill-opacity="0" stroke="#1A1919" stroke-width="2.966" stroke-linecap="round" stroke-linejoin="round"/>
    <path d="M313.361,80.882 C313.25,86.04 308.978,90.133 303.819,90.022 C298.66,89.911 294.567,85.639 294.679,80.48 C294.79,75.321 299.063,71.229 304.222,71.339 C309.381,71.451 313.473,75.723 313.361,80.882" fill="#FFFFFE"/>
    <path d="M313.361,80.882 C313.25,86.04 308.978,90.133 303.819,90.022 C298.66,89.911 294.567,85.639 294.679,80.48 C294.79,75.321 299.063,71.229 304.222,71.339 C309.381,71.451 313.473,75.723 313.361,80.882 z M314.312,78.084 C314.312,78.084 321.015,69.921 330.597,79.621" fill-opacity="0" stroke="#1A1919" stroke-width="2.966" stroke-linecap="round" stroke-linejoin="round"/>
    <path d="M301.435,97.388 C301.435,97.388 286.086,98.465 290.769,110.509 C294.142,119.185 303.772,112.866 303.772,112.866 C303.772,112.866 303.846,123.599 314.257,121.993 C319.317,121.211 321.205,116.208 321.205,116.208 C321.205,116.208 324.24,124.999 332.024,123.562 C340.661,121.968 342.008,114.58 342.008,114.58 C342.008,114.58 351.466,124.129 356.766,118.162 C361.934,112.338 360.526,107.19 356.182,103.908 C345.671,95.967 332.585,97.465 332.585,97.465" fill="#E3E4E2"/>
    <path d="M301.435,97.388 C301.435,97.388 286.086,98.465 290.769,110.509 C294.142,119.185 303.772,112.866 303.772,112.866 C303.772,112.866 303.846,123.599 314.257,121.993 C319.317,121.211 321.205,116.208 321.205,116.208 C321.205,116.208 324.24,124.999 332.024,123.562 C340.661,121.968 342.008,114.58 342.008,114.58 C342.008,114.58 351.466,124.129 356.766,118.162 C361.934,112.338 360.526,107.19 356.182,103.908 C345.671,95.967 332.585,97.465 332.585,97.465" fill-opacity="0" stroke="#1A1919" stroke-width="2.966" stroke-linecap="round" stroke-linejoin="round"/>
    <path d="M393.305,88.389 C393.305,88.389 399.207,76.055 409.201,80.424 C419.194,84.793 413.957,99.788 408.632,106.817 C402.22,115.283 391.758,118.915 389.047,106.989" fill="#F9D8B5"/>
    <path d="M393.305,88.389 C393.305,88.389 399.207,76.055 409.201,80.424 C419.194,84.793 413.957,99.788 408.632,106.817 C402.22,115.283 391.758,118.915 389.047,106.989" fill-opacity="0" stroke="#1A1919" stroke-width="2.966" stroke-linecap="round" stroke-linejoin="round"/>
    <path d="M314.854,80.469 C314.854,80.469 299.931,84.598 302.647,96.227 C305.363,107.857 340.801,101.796 329.426,92.651" fill="#F9D8B5"/>
    <path d="M314.854,80.469 C314.854,80.469 299.931,84.598 302.647,96.227 C305.363,107.857 340.801,101.796 329.426,92.651" fill-opacity="0" stroke="#1A1919" stroke-width="2.966" stroke-linecap="round" stroke-linejoin="round"/>
    <path d="M393.027,87.493 C393.027,87.493 386.277,84.084 387.591,78.179 C388.905,72.273 393.134,68.804 393.134,68.804 C393.134,68.804 384.281,66.537 384.764,57.944 C385.245,49.35 390.003,48.859 390.003,48.859 C390.003,48.859 381.112,48.371 382.73,42.175 C384.346,35.98 391.735,37.326 391.735,37.326 C391.735,37.326 392.475,30.517 402.848,31.039 C413.22,31.558 416.885,40.538 412.546,49.047 C419.779,43.864 428.649,45.241 430.012,50.908 C431.373,56.574 425.921,61.796 425.921,61.796 C425.921,61.796 437.396,66.198 434.554,74.147 C430.871,84.452 422.887,78.642 422.887,78.642 C422.887,78.642 430.922,91.276 420.434,96.094 C412.394,99.788 413.923,95.361 413.923,95.361 C413.923,95.361 416.898,81.184 407.132,80.083 C398.857,79.152 393.027,87.493 393.027,87.493" fill="#E3E4E2"/>
    <path d="M393.027,87.493 C393.027,87.493 386.277,84.084 387.591,78.179 C388.905,72.273 393.134,68.804 393.134,68.804 C393.134,68.804 384.281,66.537 384.764,57.944 C385.245,49.35 390.003,48.859 390.003,48.859 C390.003,48.859 381.112,48.371 382.73,42.175 C384.346,35.98 391.735,37.326 391.735,37.326 C391.735,37.326 392.475,30.517 402.848,31.039 C413.22,31.558 416.885,40.538 412.546,49.047 C419.779,43.864 428.649,45.241 430.012,50.908 C431.373,56.574 425.921,61.796 425.921,61.796 C425.921,61.796 437.396,66.198 434.554,74.147 C430.871,84.452 422.887,78.642 422.887,78.642 C422.887,78.642 430.922,91.276 420.434,96.094 C412.394,99.788 413.923,95.361 413.923,95.361 C413.923,95.361 416.898,81.184 407.132,80.083 C398.857,79.152 393.027,87.493 393.027,87.493 z" fill-opacity="0" stroke="#1A1919" stroke-width="2.966" stroke-linecap="round" stroke-linejoin="round"/>
    <path d="M306.973,129.549 C306.973,129.549 313.371,148.734 336.424,139.677" fill="#F9D8B5"/>
    <path d="M306.973,129.549 C306.973,129.549 313.371,148.734 336.424,139.677 M406.649,93.325 C406.649,93.325 401.542,91.631 398.234,98.286" fill-opacity="0" stroke="#1A1919" stroke-width="2.966" stroke-linecap="round" stroke-linejoin="round"/>
  </g>
</svg>
